<svg width="24" height="24" viewBox="0 0 24 24" fill="none" xmlns="http://www.w3.org/2000/svg">
<path d="M3.70063 12.7049C3.31299 12.3149 3.31299 11.6851 3.70063 11.2951L10.2418 4.71363C10.6328 4.32021 11.2694 4.32021 11.6604 4.71363L12.0618 5.11752C12.4494 5.50754 12.4494 6.13737 12.0618 6.52739L7.32326 11.2951C6.93562 11.6851 6.93562 12.3149 7.32326 12.7049L12.0618 17.4726C12.4494 17.8626 12.4494 18.4925 12.0618 18.8825L11.6604 19.2864C11.2694 19.6798 10.6328 19.6798 10.2418 19.2864L3.70063 12.7049ZM10.9382 12.7049C10.5506 12.3149 10.5506 11.6851 10.9382 11.2951L17.4794 4.71363C17.8704 4.32021 18.5069 4.32021 18.898 4.71363L19.2994 5.11752C19.687 5.50754 19.687 6.13737 19.2994 6.52739L14.5608 11.2951C14.1732 11.6851 14.1732 12.3149 14.5608 12.7049L19.2994 17.4726C19.687 17.8626 19.687 18.4925 19.2994 18.8825L18.898 19.2864C18.5069 19.6798 17.8704 19.6798 17.4794 19.2864L10.9382 12.7049Z" fill="#6B6D6F"/>
</svg>
