<svg width="24" height="24" viewBox="0 0 24 24" fill="none" xmlns="http://www.w3.org/2000/svg">
<path d="M20.2994 12.7049C20.687 12.3149 20.687 11.6851 20.2994 11.2951L13.7582 4.71363C13.3672 4.32021 12.7306 4.32021 12.3396 4.71363L11.9382 5.11752C11.5506 5.50754 11.5506 6.13737 11.9382 6.52739L16.6767 11.2951C17.0644 11.6851 17.0644 12.3149 16.6767 12.7049L11.9382 17.4726C11.5506 17.8626 11.5506 18.4925 11.9382 18.8825L12.3396 19.2864C12.7306 19.6798 13.3672 19.6798 13.7582 19.2864L20.2994 12.7049ZM13.0618 12.7049C13.4494 12.3149 13.4494 11.6851 13.0618 11.2951L6.52059 4.71363C6.12958 4.32021 5.49306 4.32021 5.10205 4.71363L4.70063 5.11752C4.31299 5.50754 4.31299 6.13737 4.70063 6.52739L9.43915 11.2951C9.82679 11.6851 9.82679 12.3149 9.43915 12.7049L4.70063 17.4726C4.31299 17.8626 4.31299 18.4925 4.70063 18.8825L5.10205 19.2864C5.49306 19.6798 6.12958 19.6798 6.52059 19.2864L13.0618 12.7049Z" fill="#01A3E0"/>
</svg>
