<svg width="20" height="16" viewBox="0 0 20 16" fill="none" xmlns="http://www.w3.org/2000/svg">
<path d="M0.626144 8C0.626144 8.29837 0.744671 8.58451 0.95565 8.79549C1.16663 9.00647 1.45278 9.125 1.75114 9.125H15.5324L10.7043 13.9531C10.5994 14.0576 10.5162 14.1818 10.4594 14.3186C10.4026 14.4553 10.3734 14.6019 10.3734 14.75C10.3734 14.8981 10.4026 15.0447 10.4594 15.1814C10.5162 15.3182 10.5994 15.4424 10.7043 15.5469C10.9166 15.7564 11.2029 15.8739 11.5011 15.8739C11.7994 15.8739 12.0857 15.7564 12.298 15.5469L19.048 8.79687C19.1529 8.69236 19.2361 8.56816 19.2929 8.43142C19.3497 8.29467 19.3789 8.14806 19.3789 8C19.3789 7.85193 19.3497 7.70532 19.2929 7.56858C19.2361 7.43183 19.1529 7.30764 19.048 7.20312L12.298 0.453123C12.0867 0.241779 11.8 0.123047 11.5011 0.123047C11.3532 0.123047 11.2066 0.152196 11.0699 0.208831C10.9332 0.265466 10.8089 0.348476 10.7043 0.453123C10.5996 0.557771 10.5166 0.682005 10.46 0.818733C10.4033 0.955461 10.3742 1.10201 10.3742 1.25C10.3742 1.39799 10.4033 1.54454 10.46 1.68126C10.5166 1.81799 10.5996 1.94223 10.7043 2.04687L15.5324 6.875H1.75114C1.45278 6.875 1.16663 6.99353 0.95565 7.2045C0.744671 7.41548 0.626144 7.70163 0.626144 8Z" fill="#3C3D3D"/>
</svg>
