<svg width="20" height="20" viewBox="0 0 20 20" fill="none" xmlns="http://www.w3.org/2000/svg">
<path d="M10.0112 0C10.7952 0.00820536 11.576 0.0953873 12.3419 0.259494C12.5048 0.294418 12.6523 0.377347 12.7638 0.496691C12.8752 0.616036 12.9451 0.765834 12.9636 0.925154L13.1451 2.49135C13.1708 2.71216 13.25 2.92411 13.3765 3.11014C13.503 3.29618 13.6732 3.4511 13.8735 3.56245C14.0737 3.67379 14.2983 3.73846 14.5293 3.75123C14.7603 3.76401 14.9912 3.72454 15.2034 3.636L16.6988 3.00521C16.8508 2.94095 17.0198 2.92361 17.1824 2.95558C17.3451 2.98755 17.4933 3.06726 17.6068 3.18368C18.688 4.29244 19.4933 5.62224 19.962 7.07302C20.011 7.22557 20.0094 7.38899 19.9573 7.54061C19.9053 7.69223 19.8054 7.82454 19.6715 7.91919L18.3459 8.85871C18.1592 8.99017 18.0073 9.16203 17.9026 9.36036C17.7979 9.55869 17.7433 9.77792 17.7433 10.0003C17.7433 10.2226 17.7979 10.4419 17.9026 10.6402C18.0073 10.8385 18.1592 11.0104 18.3459 11.1418L19.6736 12.0803C19.8077 12.1751 19.9077 12.3075 19.9598 12.4594C20.0119 12.6112 20.0134 12.7748 19.9641 12.9275C19.4956 14.3782 18.6907 15.7079 17.61 16.8169C17.4967 16.9333 17.3487 17.013 17.1863 17.0452C17.0238 17.0773 16.855 17.0603 16.7031 16.9964L15.2013 16.3635C14.9894 16.2743 14.7586 16.2342 14.5275 16.2466C14.2965 16.2589 14.0717 16.3233 13.8714 16.4346C13.6711 16.5458 13.5008 16.7008 13.3745 16.887C13.2481 17.0731 13.1692 17.2852 13.1441 17.5061L12.9625 19.0713C12.9444 19.2288 12.876 19.377 12.7669 19.4958C12.6577 19.6145 12.513 19.6981 12.3526 19.7349C10.8054 20.0884 9.1935 20.0884 7.64635 19.7349C7.48571 19.6982 7.34078 19.6148 7.23142 19.496C7.12205 19.3772 7.05358 19.2289 7.03538 19.0713L6.85486 17.5082C6.82864 17.288 6.74901 17.0767 6.62236 16.8915C6.49572 16.7062 6.32559 16.552 6.12563 16.4412C5.92568 16.3305 5.70148 16.2664 5.47102 16.254C5.24057 16.2415 5.0103 16.2812 4.79869 16.3697L3.29689 17.0015C3.14484 17.0656 2.9758 17.0828 2.81315 17.0507C2.65049 17.0185 2.50226 16.9386 2.38897 16.822C1.30808 15.7118 0.50353 14.3805 0.0358544 12.9286C-0.0133908 12.7759 -0.011874 12.6122 0.0401939 12.4604C0.0922618 12.3086 0.192294 12.1761 0.326388 12.0814L1.65409 11.1418C1.84085 11.0104 1.99273 10.8385 2.09742 10.6402C2.20211 10.4419 2.25666 10.2226 2.25666 10.0003C2.25666 9.77792 2.20211 9.55869 2.09742 9.36036C1.99273 9.16203 1.84085 8.99017 1.65409 8.85871L0.326388 7.92125C0.192294 7.82652 0.0922618 7.69404 0.0401939 7.54221C-0.011874 7.39038 -0.0133908 7.22674 0.0358544 7.07404C0.504573 5.62327 1.30985 4.29346 2.3911 3.1847C2.50452 3.06829 2.65281 2.98858 2.81546 2.95661C2.97811 2.92464 3.14708 2.94198 3.29902 3.00624L4.79442 3.63702C5.007 3.72551 5.23823 3.76489 5.46953 3.75199C5.70084 3.73909 5.92577 3.67428 6.12625 3.56276C6.32674 3.45124 6.49719 3.29613 6.62392 3.10987C6.75064 2.92362 6.83011 2.71142 6.85593 2.49033L7.03751 0.925154C7.05584 0.765513 7.12575 0.615385 7.23743 0.495823C7.3491 0.376262 7.49695 0.293264 7.66024 0.258469C8.4325 0.0945799 9.22036 0.00796115 10.0112 0ZM9.9984 6.92327C9.14853 6.92327 8.33348 7.24745 7.73253 7.8245C7.13158 8.40156 6.79398 9.18421 6.79398 10.0003C6.79398 10.8164 7.13158 11.599 7.73253 12.1761C8.33348 12.7531 9.14853 13.0773 9.9984 13.0773C10.8483 13.0773 11.6633 12.7531 12.2643 12.1761C12.8652 11.599 13.2028 10.8164 13.2028 10.0003C13.2028 9.18421 12.8652 8.40156 12.2643 7.8245C11.6633 7.24745 10.8483 6.92327 9.9984 6.92327Z" fill="#01A3E0"/>
</svg>
