<svg width="20" height="18" viewBox="0 0 20 18" fill="none" xmlns="http://www.w3.org/2000/svg">
<path fill-rule="evenodd" clip-rule="evenodd" d="M4.81219 2.19691V3.70748L2.96211 3.85429C2.32652 3.90411 1.72643 4.16008 1.2578 4.58125C0.789164 5.00243 0.479044 5.5645 0.377024 6.1776C0.332246 6.45205 0.289653 6.72651 0.25252 7.00203C0.24368 7.06865 0.256792 7.13628 0.289965 7.19517C0.323138 7.25405 0.374657 7.30116 0.437091 7.32968L0.521186 7.36798C6.45039 10.1019 13.5504 10.1019 19.4785 7.36798L19.5626 7.32968C19.6248 7.30099 19.6761 7.25382 19.7091 7.19494C19.742 7.13607 19.755 7.06853 19.7461 7.00203C19.7091 6.72665 19.6679 6.45181 19.6226 6.1776C19.5206 5.5645 19.2105 5.00243 18.7419 4.58125C18.2732 4.16008 17.6732 3.90411 17.0376 3.85429L15.1875 3.70855V2.19797C15.1876 1.75208 15.0234 1.32097 14.7248 0.983037C14.4261 0.645104 14.0129 0.422798 13.5602 0.356553L12.2278 0.16188C10.7508 -0.0539599 9.24892 -0.0539599 7.77188 0.16188L6.43947 0.356553C5.98697 0.422771 5.57388 0.644922 5.27526 0.982634C4.97665 1.32035 4.81234 1.7512 4.81219 2.19691ZM11.9842 1.73948C10.6687 1.54728 9.33101 1.54728 8.01542 1.73948L6.68302 1.93415C6.61837 1.94357 6.55934 1.97527 6.51666 2.02349C6.47397 2.0717 6.45046 2.13324 6.45039 2.19691V3.59579C8.81475 3.46386 11.1849 3.46386 13.5493 3.59579V2.19691C13.5492 2.13324 13.5257 2.0717 13.483 2.02349C13.4403 1.97527 13.3813 1.94357 13.3167 1.93415L11.9842 1.73948Z" fill="#EFFAFF"/>
<path d="M19.9579 9.22748C19.9558 9.19308 19.9451 9.15972 19.9267 9.13025C19.9084 9.10078 19.883 9.07609 19.8527 9.0583C19.8224 9.04051 19.7881 9.03015 19.7528 9.02812C19.7175 9.02609 19.6822 9.03244 19.65 9.04663C13.5657 11.671 6.43401 11.671 0.34972 9.04663C0.317484 9.03244 0.282191 9.02609 0.246877 9.02812C0.211562 9.03015 0.177282 9.04051 0.146986 9.0583C0.116689 9.07609 0.0912813 9.10078 0.0729481 9.13025C0.0546149 9.15972 0.0439044 9.19308 0.041738 9.22748C-0.0698763 11.2641 0.0425252 13.3065 0.377024 15.3198C0.478822 15.9331 0.788845 16.4954 1.2575 16.9168C1.72616 17.3382 2.32636 17.5943 2.96211 17.6442L5.00659 17.8037C8.32996 18.0654 11.6686 18.0654 14.9931 17.8037L17.0376 17.6442C17.6733 17.5943 18.2735 17.3382 18.7422 16.9168C19.2108 16.4954 19.5209 15.9331 19.6226 15.3198C19.9568 13.3039 20.0704 11.2614 19.9579 9.22854" fill="#EFFAFF"/>
</svg>
