<svg width="22" height="18" viewBox="0 0 22 18" fill="none" xmlns="http://www.w3.org/2000/svg">
<path d="M0 14V17C0 17.5523 0.44772 18 1 18H15C15.5523 18 16 17.5523 16 17V14C16 11.7909 14.2091 10 12 10H4C1.79086 10 0 11.7909 0 14ZM17.9839 17.3118C17.9485 17.655 18.1912 18 18.5363 18H21C21.5522 18 22 17.5523 22 17V14C22 11.7909 20.2091 10 18 10H17.0314C16.8153 10 16.6967 10.2597 16.8253 10.4334C17.5635 11.4304 18 12.6642 18 14V17C18 17.1053 17.9945 17.2093 17.9839 17.3118ZM12 4C12 6.20914 10.2091 8 8 8C5.79086 8 4 6.20914 4 4C4 1.79086 5.79086 0 8 0C10.2091 0 12 1.79086 12 4ZM13.3509 7.9476C13.0101 7.892 12.894 7.4893 13.0782 7.1973C13.6622 6.2717 14.0001 5.17531 14.0001 4C14.0001 2.82469 13.6622 1.7283 13.0782 0.80271C12.894 0.51073 13.0101 0.10804 13.3509 0.0524199C13.5622 0.0179299 13.7791 0 14.0001 0C16.2093 0 18.0001 1.79086 18.0001 4C18.0001 6.20914 16.2093 8 14.0001 8C13.7791 8 13.5622 7.9821 13.3509 7.9476Z" fill="#EFFAFF"/>
</svg>
