<svg width="22" height="23" viewBox="0 0 22 23" fill="none" xmlns="http://www.w3.org/2000/svg">
<path d="M10 0C11.4734 0 12.8865 0.579463 13.9284 1.61091C14.9702 2.64236 15.5556 4.04131 15.5556 5.5C15.5556 6.95869 14.9702 8.35764 13.9284 9.38909C12.8865 10.4205 11.4734 11 10 11C8.52658 11 7.1135 10.4205 6.07163 9.38909C5.02976 8.35764 4.44444 6.95869 4.44444 5.5C4.44444 4.04131 5.02976 2.64236 6.07163 1.61091C7.1135 0.579463 8.52658 0 10 0Z" fill="#EFFAFF"/>
<path d="M2.22222 22C1.63285 22 1.06762 21.7682 0.650874 21.3556C0.234126 20.9431 0 20.3835 0 19.8V18.7C0 17.2413 0.585316 15.8424 1.62718 14.8109C2.66905 13.7795 4.08213 13.2 5.55556 13.2H9.83333C10.2729 13.2 10.5199 13.7504 10.2977 14.1297C8.83415 16.628 9.94849 19.7846 10.6064 21.2226C10.7673 21.5743 10.5125 22 10.1258 22H2.22222Z" fill="#EFFAFF"/>
<path d="M16.4 22.8C17.8322 22.8 19.2057 22.2311 20.2184 21.2184C21.2311 20.2057 21.8 18.8322 21.8 17.4C21.8 15.9678 21.2311 14.5943 20.2184 13.5816C19.2057 12.5689 17.8322 12 16.4 12C14.9678 12 13.5943 12.5689 12.5816 13.5816C11.5689 14.5943 11 15.9678 11 17.4C11 18.8322 11.5689 20.2057 12.5816 21.2184C13.5943 22.2311 14.9678 22.8 16.4 22.8ZM16.4 14.4C16.5591 14.4 16.7117 14.4632 16.8243 14.5757C16.9368 14.6883 17 14.8409 17 15V16.8H18.8C18.9591 16.8 19.1117 16.8632 19.2243 16.9757C19.3368 17.0883 19.4 17.2409 19.4 17.4C19.4 17.5591 19.3368 17.7117 19.2243 17.8243C19.1117 17.9368 18.9591 18 18.8 18H17V19.8C17 19.9591 16.9368 20.1117 16.8243 20.2243C16.7117 20.3368 16.5591 20.4 16.4 20.4C16.2409 20.4 16.0883 20.3368 15.9757 20.2243C15.8632 20.1117 15.8 19.9591 15.8 19.8V18H14C13.8409 18 13.6883 17.9368 13.5757 17.8243C13.4632 17.7117 13.4 17.5591 13.4 17.4C13.4 17.2409 13.4632 17.0883 13.5757 16.9757C13.6883 16.8632 13.8409 16.8 14 16.8H15.8V15C15.8 14.8409 15.8632 14.6883 15.9757 14.5757C16.0883 14.4632 16.2409 14.4 16.4 14.4Z" fill="#EFFAFF"/>
</svg>
